# xmcd
#
# Track frame offsets: 
#        182
#        16782
#        39042
#        51505
#        68135
#        85635
#        105790
#        120410
#        135477
#        150215
#        164267
#        184090
#
# Disc length: 2603 seconds
#
# Revision: 0
# Processed by: cddbd v1.4b42PL1 Copyright (c) Steve Scherf et al.
# Submitted via: ExactAudioCopy v0.90a11
#
DISCID=7c0a290c
DTITLE=Bellamy Brothers - Live at Gilley's
DYEAR=1900
DGENRE=
TTITLE0=Sugar Daddy
TTITLE1=You Ain't Just Whistlin' Dixie
TTITLE2=We Can Handle It
TTITLE3=Goin' Sane
TTITLE4=For All the Wrong Reasons
TTITLE5=Foolin' Around
TTITLE6=Lovers Live Longer
TTITLE7=You're My Favorite Star
TTITLE8=Get Into Reggae Cowboy
TTITLE9=Do You Love As Good As You Look?
TTITLE10=If I Said You Had A Beautiful Body Would You Hold It Against 
TTITLE10=Me?
TTITLE11=Let Your Love Flow
EXTD=
EXTT0=
EXTT1=
EXTT2=
EXTT3=
EXTT4=
EXTT5=
EXTT6=
EXTT7=
EXTT8=
EXTT9=
EXTT10=
EXTT11=
PLAYORDER=
